<?xml version="1.0" encoding="UTF-8" standalone="no"?>
<svg
   xmlns:dc="http://purl.org/dc/elements/1.1/"
   xmlns:cc="http://creativecommons.org/ns#"
   xmlns:rdf="http://www.w3.org/1999/02/22-rdf-syntax-ns#"
   xmlns:svg="http://www.w3.org/2000/svg"
   xmlns="http://www.w3.org/2000/svg"
   xmlns:sodipodi="http://sodipodi.sourceforge.net/DTD/sodipodi-0.dtd"
   xmlns:inkscape="http://www.inkscape.org/namespaces/inkscape"
   version="1.1"
   width="24"
   height="24"
   viewBox="0 0 24 24"
   id="svg909"
   sodipodi:docname="weather-night.svg"
   inkscape:version="1.0.2-2 (e86c870879, 2021-01-15)">
  <metadata
     id="metadata915">
    <rdf:RDF>
      <cc:Work
         rdf:about="">
        <dc:format>image/svg+xml</dc:format>
        <dc:type
           rdf:resource="http://purl.org/dc/dcmitype/StillImage" />
      </cc:Work>
    </rdf:RDF>
  </metadata>
  <defs
     id="defs913" />
  <sodipodi:namedview
     pagecolor="#ffffff"
     bordercolor="#666666"
     borderopacity="1"
     objecttolerance="10"
     gridtolerance="10"
     guidetolerance="10"
     inkscape:pageopacity="0"
     inkscape:pageshadow="2"
     inkscape:window-width="1920"
     inkscape:window-height="1046"
     id="namedview911"
     showgrid="false"
     inkscape:zoom="21.179849"
     inkscape:cx="12"
     inkscape:cy="12"
     inkscape:window-x="-11"
     inkscape:window-y="-11"
     inkscape:window-maximized="1"
     inkscape:current-layer="svg909" />
  <path
     d="M17.75,4.09L15.22,6.03L16.13,9.09L13.5,7.28L10.87,9.09L11.78,6.03L9.25,4.09L12.44,4L13.5,1L14.56,4L17.75,4.09M21.25,11L19.61,12.25L20.2,14.23L18.5,13.06L16.8,14.23L17.39,12.25L15.75,11L17.81,10.95L18.5,9L19.19,10.95L21.25,11M18.97,15.95C19.8,15.87 20.69,17.05 20.16,17.8C19.84,18.25 19.5,18.67 19.08,19.07C15.17,23 8.84,23 4.94,19.07C1.03,15.17 1.03,8.83 4.94,4.93C5.34,4.53 5.76,4.17 6.21,3.85C6.96,3.32 8.14,4.21 8.06,5.04C7.79,7.9 8.75,10.87 10.95,13.06C13.14,15.26 16.1,16.22 18.97,15.95M17.33,17.97C14.5,17.81 11.7,16.64 9.53,14.5C7.36,12.31 6.2,9.5 6.04,6.68C3.23,9.82 3.34,14.64 6.35,17.66C9.37,20.67 14.19,20.78 17.33,17.97Z"
     id="path907" />
  <path
     style="fill:#b3b3b3;fill-opacity:1;stroke:#000000;stroke-width:0.00840421;stroke-miterlimit:4;stroke-dasharray:none"
     d="M 11.409816,21.976701 C 10.591879,21.928366 9.3889266,21.67745 8.6219971,21.395207 6.2217629,20.511882 4.1633778,18.654658 3.0495681,16.367359 1.3378227,12.85215 1.8460762,8.6194405 4.3365278,5.6496242 4.9394645,4.9306338 5.9271461,4.0277087 6.3436962,3.8146985 6.5469143,3.7107793 6.9471566,3.7176717 7.193087,3.8293254 c 0.2735709,0.1242025 0.6034279,0.4404687 0.7281847,0.6981821 0.098693,0.2038723 0.1038921,0.2696002 0.094019,1.1886059 -0.015013,1.3974158 0.1105107,2.2755998 0.4898954,3.4273979 1.0389479,3.1542057 3.6216399,5.6176047 6.8234499,6.5082807 0.956472,0.26607 1.48078,0.329667 2.792944,0.338772 l 1.211251,0.0084 0.212323,0.12443 c 0.543526,0.318527 0.871558,1.004028 0.698398,1.459472 -0.152324,0.400643 -1.326672,1.67658 -2.082035,2.262144 -1.59307,1.234963 -3.438556,1.957818 -5.401135,2.115562 -0.585934,0.04709 -0.786028,0.04948 -1.350566,0.01612 z m 2.171876,-2.229678 c 0.875133,-0.193734 1.733571,-0.528291 2.441233,-0.951416 0.477896,-0.285742 1.005439,-0.659258 1.005439,-0.711879 0,-0.01978 -0.06905,-0.04677 -0.153447,-0.05996 -0.0844,-0.0132 -0.448344,-0.06902 -0.808772,-0.124059 C 10.822996,17.099085 6.6764984,12.781144 6.0253727,7.4437824 5.9936933,7.1841016 5.9597104,6.9625632 5.9498552,6.9514749 5.9244836,6.9229286 5.8288696,7.0488929 5.4813526,7.5686922 4.9328207,8.3891603 4.447102,9.5259233 4.2444332,10.463545 c -0.120832,0.559015 -0.1167985,2.523638 0.00635,3.09454 0.7081048,3.282604 3.2042566,5.670036 6.5452388,6.260162 0.55657,0.09831 2.210932,0.05601 2.785667,-0.07122 z"
     id="path925" />
  <path
     style="fill:#b3b3b3;fill-opacity:1;stroke:#000000;stroke-width:0.00840421;stroke-miterlimit:4;stroke-dasharray:none"
     d="M 11.126528,21.929309 C 10.756026,21.889225 9.8462457,21.715084 9.4031921,21.599446 7.8803998,21.201992 6.3375557,20.314772 5.1140915,19.132978 2.0203747,16.144631 1.2023814,11.554596 3.0730221,7.6798559 3.7097651,6.3609421 4.6841401,5.1462536 5.8620903,4.2029101 6.2939729,3.8570435 6.4450226,3.7846439 6.7347339,3.7846439 c 0.2912117,0 0.5172969,0.08921 0.7877686,0.3108409 0.4444366,0.3641822 0.4856782,0.5494912 0.5087534,2.2859671 0.01073,0.8074328 0.033955,1.1159949 0.113523,1.5081939 0.4251933,2.0958313 1.3835949,3.8550362 2.8961341,5.3160342 1.108042,1.070283 2.294804,1.80624 3.673932,2.278345 1.215316,0.416029 1.987345,0.52912 3.612554,0.529184 l 0.992139,4e-5 0.248442,0.167311 c 0.59962,0.403807 0.848534,1.1137 0.547427,1.56124 -0.403472,0.599685 -1.524463,1.746382 -2.177158,2.227083 -1.463886,1.078132 -3.171269,1.743278 -4.993955,1.945497 -0.403292,0.04474 -1.461829,0.05344 -1.817766,0.01493 z m 2.502379,-2.163213 c 0.91619,-0.203606 2.026665,-0.674408 2.785667,-1.181024 0.499541,-0.333433 0.684973,-0.501293 0.602707,-0.545595 -0.03286,-0.01769 -0.357191,-0.07895 -0.720744,-0.136118 -1.131571,-0.177944 -1.866753,-0.373533 -2.772906,-0.73771 C 9.9061022,15.71179 7.1833042,12.533685 6.286718,8.718579 6.1972903,8.3380511 5.980127,7.0646067 5.980127,6.920731 5.980127,6.83472 5.7555115,7.1041489 5.4850318,7.5146045 4.9638665,8.3054778 4.5266329,9.2763267 4.2730002,10.205842 4.1698879,10.583728 4.1635452,10.688511 4.1643974,12 c 8.928e-4,1.374261 0.00267,1.399438 0.1329833,1.888166 0.4107995,1.540619 1.1237901,2.761872 2.2346007,3.827558 1.1708968,1.123332 2.5589223,1.812367 4.3112586,2.140165 0.06492,0.01214 0.638579,0.01461 1.274797,0.0055 0.855592,-0.01227 1.248954,-0.03708 1.51087,-0.09528 z"
     id="path929" />
  <path
     style="fill:#b3b3b3;fill-opacity:1;stroke:#000000;stroke-width:0.00840421;stroke-miterlimit:4;stroke-dasharray:none"
     d=""
     id="path933" />
  <path
     style="fill:#b3b3b3;fill-opacity:1;stroke:#000000;stroke-width:0.00840421;stroke-miterlimit:4;stroke-dasharray:none"
     d="M 10.583559,19.741944 C 8.9899729,19.412918 7.6555261,18.715438 6.5297095,17.623101 5.4519109,16.577356 4.7370644,15.334745 4.3528898,13.839158 4.2418229,13.406775 4.2228649,13.222757 4.1998972,12.35411 4.1589998,10.807363 4.2796947,10.10076 4.7798759,8.9586524 5.1087501,8.2077047 5.8433161,6.9843378 5.9195632,7.0605849 c 0.01349,0.01349 0.063484,0.2912762 0.1110984,0.6173025 0.5046397,3.4554066 2.3945395,6.4593446 5.2737384,8.3824456 1.487072,0.99326 2.995708,1.579079 4.822599,1.872666 0.43083,0.06924 0.791668,0.132528 0.801861,0.140649 0.04258,0.03393 -0.127615,0.177925 -0.500695,0.423617 -1.098816,0.723627 -2.305351,1.181048 -3.406248,1.291373 -0.779154,0.07808 -1.94186,0.05582 -2.438358,-0.04669 z"
     id="path935" />
  <path
     style="fill:#b3b3b3;fill-opacity:1;stroke:#000000;stroke-width:0.00840421;stroke-miterlimit:4;stroke-dasharray:none"
     d="M 14.809274,8.1462194 C 14.12112,7.670404 13.533528,7.2805225 13.503513,7.2798157 c -0.03001,-7.082e-4 -0.611181,0.382499 -1.291481,0.8515679 -0.6803,0.469069 -1.245153,0.844609 -1.255229,0.8345329 C 10.946727,8.9558409 11.12952,8.3068202 11.363009,7.5236484 11.596498,6.7404766 11.786238,6.0727958 11.784653,6.0399136 11.783069,6.0070309 11.240354,5.5685153 10.578619,5.0654342 9.9168854,4.5623531 9.3838461,4.1423618 9.3940878,4.1321201 c 0.010242,-0.010242 0.6959912,-0.040179 1.5238872,-0.066527 0.827896,-0.026348 1.520321,-0.063159 1.538721,-0.081802 0.0271,-0.027458 0.386032,-1.0237315 0.971285,-2.6959677 l 0.07241,-0.2069078 0.512933,1.4543 c 0.282113,0.799865 0.518862,1.4602291 0.526108,1.4674757 0.0072,0.00725 0.701317,0.035589 1.542378,0.062984 0.841062,0.027395 1.535182,0.055788 1.542491,0.063097 0.0073,0.00731 -0.538403,0.4357136 -1.212691,0.9520115 -0.883646,0.6766009 -1.219368,0.959593 -1.202302,1.0134626 0.112173,0.3540725 0.865989,2.907806 0.859526,2.9118509 -0.0046,0.00288 -0.57141,-0.3840628 -1.259564,-0.8598778 z"
     id="path937" />
  <path
     style="fill:#b3b3b3;fill-opacity:1;stroke:#000000;stroke-width:0.00840421;stroke-miterlimit:4;stroke-dasharray:none"
     d="m 16.885136,14.092335 c -8.72e-4,-0.02117 0.120291,-0.448889 0.26925,-0.950481 0.177234,-0.5968 0.253675,-0.923152 0.221183,-0.944294 -0.02731,-0.01777 -0.385057,-0.287268 -0.794994,-0.598885 l -0.745341,-0.566576 0.979769,-0.03145 c 0.538872,-0.0173 0.9955,-0.04917 1.014727,-0.07082 0.01923,-0.02165 0.168531,-0.421807 0.331787,-0.889233 0.163256,-0.4674251 0.309876,-0.8648956 0.325823,-0.8832675 0.01595,-0.018372 0.174738,0.3800021 0.352871,0.8852755 l 0.323877,0.918679 0.171524,0.0058 c 0.09434,0.0032 0.543339,0.0191 0.997781,0.03541 l 0.826257,0.02966 -0.792871,0.605633 c -0.696965,0.532376 -0.788808,0.618042 -0.759285,0.708221 0.130508,0.39864 0.523028,1.758185 0.511373,1.771208 -0.0079,0.0089 -0.350654,-0.216129 -0.761613,-0.499971 -0.410959,-0.283842 -0.773385,-0.53114 -0.805392,-0.549549 -0.03471,-0.01997 -0.382387,0.187773 -0.861668,0.514859 -0.441911,0.301582 -0.804187,0.531008 -0.805058,0.509835 z"
     id="path939" />
</svg>
