<?xml version="1.0" encoding="UTF-8" standalone="no"?>
<svg
   xmlns:dc="http://purl.org/dc/elements/1.1/"
   xmlns:cc="http://creativecommons.org/ns#"
   xmlns:rdf="http://www.w3.org/1999/02/22-rdf-syntax-ns#"
   xmlns:svg="http://www.w3.org/2000/svg"
   xmlns="http://www.w3.org/2000/svg"
   xmlns:sodipodi="http://sodipodi.sourceforge.net/DTD/sodipodi-0.dtd"
   xmlns:inkscape="http://www.inkscape.org/namespaces/inkscape"
   version="1.1"
   width="24"
   height="24"
   viewBox="0 0 24 24"
   id="svg4"
   sodipodi:docname="white-balance-sunny.svg"
   inkscape:version="1.0.2-2 (e86c870879, 2021-01-15)">
  <metadata
     id="metadata10">
    <rdf:RDF>
      <cc:Work
         rdf:about="">
        <dc:format>image/svg+xml</dc:format>
        <dc:type
           rdf:resource="http://purl.org/dc/dcmitype/StillImage" />
      </cc:Work>
    </rdf:RDF>
  </metadata>
  <defs
     id="defs8" />
  <sodipodi:namedview
     pagecolor="#ffffff"
     bordercolor="#666666"
     borderopacity="1"
     objecttolerance="10"
     gridtolerance="10"
     guidetolerance="10"
     inkscape:pageopacity="0"
     inkscape:pageshadow="2"
     inkscape:window-width="1966"
     inkscape:window-height="948"
     id="namedview6"
     showgrid="false"
     inkscape:zoom="23.633726"
     inkscape:cx="12"
     inkscape:cy="11.809594"
     inkscape:window-x="0"
     inkscape:window-y="0"
     inkscape:window-maximized="0"
     inkscape:current-layer="svg4" />
  <path
     d="M3.55 19.09L4.96 20.5L6.76 18.71L5.34 17.29M12 6C8.69 6 6 8.69 6 12S8.69 18 12 18 18 15.31 18 12C18 8.68 15.31 6 12 6M20 13H23V11H20M17.24 18.71L19.04 20.5L20.45 19.09L18.66 17.29M20.45 5L19.04 3.6L17.24 5.39L18.66 6.81M13 1H11V4H13M6.76 5.39L4.96 3.6L3.55 5L5.34 6.81L6.76 5.39M1 13H4V11H1M13 20H11V23H13"
     id="path2" />
  <path
     style="fill:#ffc007;fill-opacity:1;stroke:#000000;stroke-width:0.159921"
     d="M 11.154642,17.921619 C 9.8591106,17.718979 8.6973344,17.129448 7.7886408,16.213576 6.7554859,15.172259 6.1932698,13.97214 6.047629,12.497171 5.924589,11.251091 6.273865,9.8593273 6.9804651,8.7800891 7.8880549,7.3938656 9.2043242,6.4911449 10.838633,6.1340893 c 0.508641,-0.1111254 1.813907,-0.1110317 2.324958,1.669e-4 2.304995,0.5015385 4.093028,2.2123278 4.633049,4.4328988 0.23422,0.963116 0.235386,1.89875 0.0036,2.850311 -0.536152,2.200625 -2.28521,3.902153 -4.551974,4.428275 -0.415205,0.09637 -1.671468,0.141901 -2.093574,0.07588 z"
     id="path871" />
  <path
     style="fill:#ffc007;fill-opacity:1;stroke:#000000;stroke-width:0.159921"
     d="M 4.450055,5.876188 3.5994912,4.9991154 4.2767401,4.3218665 4.953989,3.6446176 5.8154891,4.4902061 c 0.4738251,0.4650737 0.8643808,0.8648524 0.8679015,0.888397 0.00657,0.043926 -1.3052182,1.3746575 -1.3550869,1.3746575 -0.015227,0 -0.4104385,-0.3946827 -0.8782487,-0.8770726 z"
     id="path873" />
  <path
     style="fill:#ffc007;fill-opacity:1;stroke:#000000;stroke-width:0.159921"
     d="M 1.0199284,12 V 11.026814 H 2.5008629 3.9817974 V 12 12.973186 H 2.5008629 1.0199284 Z"
     id="path875" />
  <path
     style="fill:#ffc007;fill-opacity:1;stroke:#000000;stroke-width:0.159921"
     d="m 4.2881819,19.77454 -0.6871071,-0.688055 0.8783632,-0.877616 0.8783631,-0.877617 0.6871071,0.688055 0.687107,0.688055 -0.8783631,0.877617 -0.8783632,0.877616 z"
     id="path877" />
  <path
     style="fill:#ffc007;fill-opacity:1;stroke:#000000;stroke-width:0.159921"
     d="M 11.005658,21.520293 V 20.039359 H 12 12.994342 v 1.480934 1.480935 H 12 11.005658 Z"
     id="path879" />
  <path
     style="fill:#ffc007;fill-opacity:1;stroke:#000000;stroke-width:0.159921"
     d="m 18.1454,19.584031 -0.877616,-0.878364 0.696687,-0.695727 c 0.383178,-0.38265 0.702133,-0.686403 0.708789,-0.675008 0.0067,0.0114 0.397697,0.41054 0.868979,0.886988 l 0.856878,0.866268 -0.68805,0.687103 -0.688051,0.687103 z"
     id="path881" />
  <path
     style="fill:#ffc007;fill-opacity:1;stroke:#000000;stroke-width:0.159921"
     d="m 20.018203,12 v -0.973186 h 1.480934 1.480935 V 12 12.973186 h -1.480935 -1.480934 z"
     id="path883" />
  <path
     style="fill:#ffc007;fill-opacity:1;stroke:#000000;stroke-width:0.159921"
     d="m 17.965866,6.0760776 -0.67619,-0.6771831 0.877653,-0.8776531 0.877653,-0.8776531 0.679642,0.6796425 0.679643,0.6796424 -0.853079,0.8751937 c -0.469194,0.4813565 -0.865691,0.8751937 -0.881105,0.8751937 -0.01541,0 -0.332312,-0.3047324 -0.704217,-0.677183 z"
     id="path885" />
  <path
     style="fill:#ffc007;fill-opacity:1;stroke:#000000;stroke-width:0.159921"
     d="M 11.005658,2.4797067 V 0.9987722 H 12 12.994342 V 2.4797067 3.9606412 H 12 11.005658 Z"
     id="path887" />
</svg>
